<mxfile host="Electron" agent="Mozilla/5.0 (X11; Linux x86_64) AppleWebKit/537.36 (KHTML, like Gecko) draw.io/26.1.1 Chrome/132.0.6834.210 Electron/34.3.3 Safari/537.36" version="26.1.1">
  <diagram name="Seite-1" id="Wpoi-qLdHC6-ikTT_BPF">
    <mxGraphModel dx="2060" dy="1189" grid="1" gridSize="10" guides="1" tooltips="1" connect="1" arrows="1" fold="1" page="1" pageScale="1" pageWidth="827" pageHeight="1169" math="0" shadow="0">
      <root>
        <mxCell id="0" />
        <mxCell id="1" parent="0" />
        <mxCell id="SezSD0OTjMI3_FT1hnR--5" value="" style="endArrow=classic;dashed=1;html=1;dashPattern=1 3;strokeWidth=1;rounded=0;endFill=1;startArrow=none;startFill=0;" parent="1" edge="1">
          <mxGeometry width="50" height="50" relative="1" as="geometry">
            <mxPoint x="570" y="246" as="sourcePoint" />
            <mxPoint x="327" y="138" as="targetPoint" />
          </mxGeometry>
        </mxCell>
        <mxCell id="SezSD0OTjMI3_FT1hnR--8" value="" style="edgeStyle=orthogonalEdgeStyle;rounded=0;orthogonalLoop=1;jettySize=auto;html=1;" parent="1" source="SezSD0OTjMI3_FT1hnR--6" target="SezSD0OTjMI3_FT1hnR--7" edge="1">
          <mxGeometry relative="1" as="geometry" />
        </mxCell>
        <mxCell id="SezSD0OTjMI3_FT1hnR--10" value="MQTT" style="edgeLabel;html=1;align=center;verticalAlign=middle;resizable=0;points=[];labelBackgroundColor=none;" parent="SezSD0OTjMI3_FT1hnR--8" vertex="1" connectable="0">
          <mxGeometry x="-0.1882" relative="1" as="geometry">
            <mxPoint y="-10" as="offset" />
          </mxGeometry>
        </mxCell>
        <mxCell id="SezSD0OTjMI3_FT1hnR--6" value="LNS&lt;br&gt;(TTN)" style="ellipse;shape=cloud;whiteSpace=wrap;html=1;fillColor=#dae8fc;strokeColor=#6c8ebf;" parent="1" vertex="1">
          <mxGeometry x="370" y="80" width="90" height="80" as="geometry" />
        </mxCell>
        <mxCell id="SezSD0OTjMI3_FT1hnR--7" value="&lt;div&gt;Database &amp;amp;&lt;/div&gt;Webinterface" style="ellipse;shape=cloud;whiteSpace=wrap;html=1;fillColor=#dae8fc;strokeColor=#6c8ebf;" parent="1" vertex="1">
          <mxGeometry x="500" y="80" width="130" height="80" as="geometry" />
        </mxCell>
        <mxCell id="SezSD0OTjMI3_FT1hnR--15" value="" style="endArrow=classic;dashed=1;html=1;dashPattern=1 3;strokeWidth=1;rounded=0;endFill=1;" parent="1" edge="1">
          <mxGeometry width="50" height="50" relative="1" as="geometry">
            <mxPoint x="432" y="246" as="sourcePoint" />
            <mxPoint x="311" y="148" as="targetPoint" />
          </mxGeometry>
        </mxCell>
        <mxCell id="SezSD0OTjMI3_FT1hnR--16" value="LoRaWAN" style="edgeLabel;html=1;align=center;verticalAlign=middle;resizable=0;points=[];" parent="SezSD0OTjMI3_FT1hnR--15" vertex="1" connectable="0">
          <mxGeometry x="0.1698" y="3" relative="1" as="geometry">
            <mxPoint x="-28" y="19" as="offset" />
          </mxGeometry>
        </mxCell>
        <mxCell id="SezSD0OTjMI3_FT1hnR--17" value="" style="endArrow=classic;dashed=1;html=1;dashPattern=1 3;strokeWidth=1;rounded=0;startArrow=none;startFill=0;endFill=1;" parent="1" edge="1">
          <mxGeometry width="50" height="50" relative="1" as="geometry">
            <mxPoint x="285" y="246" as="sourcePoint" />
            <mxPoint x="285" y="149" as="targetPoint" />
          </mxGeometry>
        </mxCell>
        <mxCell id="SezSD0OTjMI3_FT1hnR--19" value="&lt;div&gt;LoRaWAN&lt;/div&gt;Gateway" style="rounded=0;whiteSpace=wrap;html=1;fillColor=#fff2cc;strokeColor=#d6b656;" parent="1" vertex="1">
          <mxGeometry x="240" y="95" width="82.5" height="50" as="geometry" />
        </mxCell>
        <mxCell id="SezSD0OTjMI3_FT1hnR--14" value="Crack Sensor 1" style="rounded=0;whiteSpace=wrap;html=1;fillColor=#d5e8d4;strokeColor=#82b366;" parent="1" vertex="1">
          <mxGeometry x="240" y="250" width="95" height="50" as="geometry" />
        </mxCell>
        <mxCell id="SezSD0OTjMI3_FT1hnR--13" value="Crack Sensor 2" style="rounded=0;whiteSpace=wrap;html=1;fillColor=#d5e8d4;strokeColor=#82b366;" parent="1" vertex="1">
          <mxGeometry x="390" y="250" width="95" height="50" as="geometry" />
        </mxCell>
        <mxCell id="SezSD0OTjMI3_FT1hnR--2" value="Crack Sensor 3" style="rounded=0;whiteSpace=wrap;html=1;fillColor=#d5e8d4;strokeColor=#82b366;" parent="1" vertex="1">
          <mxGeometry x="530" y="250" width="95" height="50" as="geometry" />
        </mxCell>
        <mxCell id="SezSD0OTjMI3_FT1hnR--21" value="" style="edgeStyle=orthogonalEdgeStyle;rounded=0;orthogonalLoop=1;jettySize=auto;html=1;strokeWidth=1;" parent="1" target="SezSD0OTjMI3_FT1hnR--6" edge="1">
          <mxGeometry relative="1" as="geometry">
            <mxPoint x="330" y="120" as="sourcePoint" />
            <Array as="points">
              <mxPoint x="350" y="120" />
              <mxPoint x="350" y="120" />
            </Array>
          </mxGeometry>
        </mxCell>
        <mxCell id="SezSD0OTjMI3_FT1hnR--22" value="&lt;span style=&quot;&quot;&gt;TCP/IP&lt;/span&gt;" style="edgeLabel;html=1;align=center;verticalAlign=middle;resizable=0;points=[];labelBackgroundColor=none;" parent="SezSD0OTjMI3_FT1hnR--21" vertex="1" connectable="0">
          <mxGeometry x="-0.0661" relative="1" as="geometry">
            <mxPoint x="-2" y="-10" as="offset" />
          </mxGeometry>
        </mxCell>
      </root>
    </mxGraphModel>
  </diagram>
</mxfile>
